<svg width="50" height="73" viewBox="0 0 50 73" fill="none" xmlns="http://www.w3.org/2000/svg">
<g id="Group 69">
<path id="Vector" d="M10.3417 72.4686H0.379181C0.379181 61.0003 9.51147 51.6727 20.7396 51.6727H49.3755V61.8483H20.7396C15.0056 61.8483 10.3417 66.612 10.3417 72.4686Z" fill="#2F80ED"/>
<path id="Vector_2" d="M49.3792 34.7455H6.61554V44.921H49.3792V34.7455Z" fill="#2F80ED"/>
<path id="Vector_3" d="M35.1246 28.5091C27.2638 28.5091 20.8701 22.1162 20.8701 14.2564C20.8701 6.39657 27.2638 0 35.1246 0C42.9854 0 49.3792 6.39293 49.3792 14.2527C49.3792 22.1125 42.9854 28.5054 35.1246 28.5054V28.5091ZM35.1246 9.85211C32.6978 9.85211 30.7235 11.8262 30.7235 14.2527C30.7235 16.6793 32.6978 18.6533 35.1246 18.6533C37.5515 18.6533 39.5258 16.6793 39.5258 14.2527C39.5258 11.8262 37.5515 9.85211 35.1246 9.85211Z" fill="#2F80ED"/>
</g>
</svg>
