<svg width="277" height="32" viewBox="0 0 277 32" fill="none" xmlns="http://www.w3.org/2000/svg">
<path d="M10.488 6.58657C13.6467 6.58657 16.0693 7.3839 17.756 8.97857C19.4427 10.5426 20.286 12.8732 20.286 15.9706V30.9666H17.158V27.1946C16.422 28.4519 15.3333 29.4332 13.892 30.1386C12.4813 30.8439 10.7947 31.1966 8.832 31.1966C6.13333 31.1966 3.98667 30.5526 2.392 29.2646C0.797333 27.9766 0 26.2746 0 24.1586C0 22.1039 0.736 20.4479 2.208 19.1906C3.71067 17.9332 6.08733 17.3046 9.338 17.3046H17.02V15.8326C17.02 13.7472 16.4373 12.1679 15.272 11.0946C14.1067 9.99057 12.4047 9.43857 10.166 9.43857C8.63267 9.43857 7.16067 9.69923 5.75 10.2206C4.33933 10.7112 3.128 11.4012 2.116 12.2906L0.644 9.85257C1.87067 8.8099 3.34267 8.01257 5.06 7.46057C6.77733 6.8779 8.58667 6.58657 10.488 6.58657ZM9.338 28.6206C11.178 28.6206 12.7573 28.2066 14.076 27.3786C15.3947 26.5199 16.376 25.2932 17.02 23.6986V19.7426H9.43C5.29 19.7426 3.22 21.1839 3.22 24.0666C3.22 25.4772 3.75667 26.5966 4.83 27.4246C5.90333 28.2219 7.406 28.6206 9.338 28.6206Z" fill="#2F80ED"/>
<path d="M49.0396 6.77057L38.2756 30.9666H34.9176L24.1996 6.77057H27.6036L36.6656 27.3786L45.8196 6.77057H49.0396Z" fill="#2F80ED"/>
<path d="M67.0551 29.4946C66.4417 30.0466 65.6751 30.4759 64.7551 30.7826C63.8657 31.0586 62.9304 31.1966 61.9491 31.1966C59.6797 31.1966 57.9317 30.5832 56.7051 29.3566C55.4784 28.1299 54.8651 26.3972 54.8651 24.1586V9.53057H50.5411V6.77057H54.8651V1.48057H58.1311V6.77057H65.4911V9.53057H58.1311V23.9746C58.1311 25.4159 58.4837 26.5199 59.1891 27.2866C59.9251 28.0226 60.9677 28.3906 62.3171 28.3906C62.9917 28.3906 63.6357 28.2832 64.2491 28.0686C64.8931 27.8539 65.4451 27.5472 65.9051 27.1486L67.0551 29.4946Z" fill="#2F80ED"/>
<path d="M82.037 31.1966C79.7064 31.1966 77.6057 30.6752 75.735 29.6326C73.8644 28.5592 72.3924 27.0872 71.319 25.2166C70.2457 23.3459 69.709 21.2299 69.709 18.8686C69.709 16.5072 70.2457 14.3912 71.319 12.5206C72.3924 10.6499 73.8644 9.19323 75.735 8.15057C77.6057 7.1079 79.7064 6.58657 82.037 6.58657C84.3677 6.58657 86.4684 7.1079 88.3391 8.15057C90.2097 9.19323 91.6664 10.6499 92.709 12.5206C93.7824 14.3912 94.319 16.5072 94.319 18.8686C94.319 21.2299 93.7824 23.3459 92.709 25.2166C91.6664 27.0872 90.2097 28.5592 88.3391 29.6326C86.4684 30.6752 84.3677 31.1966 82.037 31.1966ZM82.037 28.2986C83.7544 28.2986 85.2877 27.9152 86.637 27.1486C88.017 26.3512 89.0904 25.2319 89.857 23.7906C90.6237 22.3492 91.007 20.7086 91.007 18.8686C91.007 17.0286 90.6237 15.3879 89.857 13.9466C89.0904 12.5052 88.017 11.4012 86.637 10.6346C85.2877 9.83723 83.7544 9.43857 82.037 9.43857C80.3197 9.43857 78.771 9.83723 77.391 10.6346C76.0417 11.4012 74.9684 12.5052 74.171 13.9466C73.4044 15.3879 73.021 17.0286 73.021 18.8686C73.021 20.7086 73.4044 22.3492 74.171 23.7906C74.9684 25.2319 76.0417 26.3512 77.391 27.1486C78.771 27.9152 80.3197 28.2986 82.037 28.2986Z" fill="#2F80ED"/>
<path d="M131.715 5.62057C134.782 5.62057 137.22 6.54057 139.029 8.38057C140.869 10.2206 141.789 12.9959 141.789 16.7066V30.9666H133.049V18.1326C133.049 16.3846 132.712 15.0966 132.037 14.2686C131.393 13.4406 130.473 13.0266 129.277 13.0266C127.958 13.0266 126.9 13.4866 126.103 14.4066C125.306 15.3266 124.907 16.7219 124.907 18.5926V30.9666H116.167V18.1326C116.167 14.7286 114.91 13.0266 112.395 13.0266C111.046 13.0266 109.972 13.4866 109.175 14.4066C108.378 15.3266 107.979 16.7219 107.979 18.5926V30.9666H99.2389V6.03457H107.565V8.65657C108.485 7.64457 109.574 6.89324 110.831 6.40257C112.119 5.88124 113.514 5.62057 115.017 5.62057C116.765 5.62057 118.329 5.94257 119.709 6.58657C121.089 7.23057 122.208 8.2119 123.067 9.53057C124.048 8.27323 125.29 7.30723 126.793 6.63257C128.296 5.9579 129.936 5.62057 131.715 5.62057Z" fill="#2F80ED"/>
<path d="M173.149 18.5466C173.149 18.6079 173.103 19.3286 173.011 20.7086H154.887C155.255 21.9966 155.96 22.9932 157.003 23.6986C158.076 24.3732 159.41 24.7106 161.005 24.7106C162.201 24.7106 163.228 24.5419 164.087 24.2046C164.976 23.8672 165.865 23.3152 166.755 22.5486L171.355 27.3326C168.932 30.0312 165.39 31.3806 160.729 31.3806C157.815 31.3806 155.255 30.8286 153.047 29.7246C150.839 28.6206 149.121 27.0872 147.895 25.1246C146.699 23.1619 146.101 20.9386 146.101 18.4546C146.101 16.0012 146.683 13.8086 147.849 11.8766C149.045 9.9139 150.685 8.38057 152.771 7.27657C154.856 6.17257 157.202 5.62057 159.809 5.62057C162.293 5.62057 164.547 6.1419 166.571 7.18457C168.595 8.19657 170.189 9.6839 171.355 11.6466C172.551 13.5786 173.149 15.8786 173.149 18.5466ZM159.855 11.8306C158.505 11.8306 157.371 12.2139 156.451 12.9806C155.561 13.7472 154.994 14.7899 154.749 16.1086H164.961C164.715 14.7899 164.133 13.7472 163.213 12.9806C162.323 12.2139 161.204 11.8306 159.855 11.8306Z" fill="#2F80ED"/>
<path d="M193.416 5.62057C196.514 5.62057 198.998 6.54057 200.868 8.38057C202.77 10.2206 203.72 12.9959 203.72 16.7066V30.9666H194.98V18.1326C194.98 14.7286 193.616 13.0266 190.886 13.0266C189.384 13.0266 188.172 13.5172 187.252 14.4986C186.363 15.4799 185.918 16.9519 185.918 18.9146V30.9666H177.178V6.03457H185.504V8.74857C186.486 7.73657 187.651 6.9699 189 6.44857C190.35 5.89657 191.822 5.62057 193.416 5.62057Z" fill="#2F80ED"/>
<path d="M226.412 29.9546C225.676 30.4146 224.771 30.7672 223.698 31.0126C222.655 31.2579 221.536 31.3806 220.34 31.3806C217.089 31.3806 214.59 30.5832 212.842 28.9886C211.094 27.3939 210.22 25.0172 210.22 21.8586V13.4866H206.586V6.95457H210.22V0.468567H218.96V6.95457H224.664V13.4866H218.96V21.7666C218.96 22.6559 219.19 23.3612 219.65 23.8826C220.14 24.3732 220.784 24.6186 221.582 24.6186C222.594 24.6186 223.483 24.3579 224.25 23.8366L226.412 29.9546Z" fill="#2F80ED"/>
<path d="M241.575 31.3806C238.907 31.3806 236.5 30.8286 234.353 29.7246C232.206 28.6206 230.52 27.0872 229.293 25.1246C228.097 23.1619 227.499 20.9386 227.499 18.4546C227.499 16.0012 228.097 13.7932 229.293 11.8306C230.52 9.8679 232.191 8.3499 234.307 7.27657C236.454 6.17257 238.876 5.62057 241.575 5.62057C244.274 5.62057 246.696 6.17257 248.843 7.27657C250.99 8.3499 252.661 9.8679 253.857 11.8306C255.053 13.7626 255.651 15.9706 255.651 18.4546C255.651 20.9386 255.053 23.1619 253.857 25.1246C252.661 27.0872 250.99 28.6206 248.843 29.7246C246.696 30.8286 244.274 31.3806 241.575 31.3806ZM241.575 24.4346C243.108 24.4346 244.366 23.9132 245.347 22.8706C246.328 21.7972 246.819 20.3252 246.819 18.4546C246.819 16.6146 246.328 15.1732 245.347 14.1306C244.366 13.0879 243.108 12.5666 241.575 12.5666C240.042 12.5666 238.784 13.0879 237.803 14.1306C236.822 15.1732 236.331 16.6146 236.331 18.4546C236.331 20.3252 236.822 21.7972 237.803 22.8706C238.784 23.9132 240.042 24.4346 241.575 24.4346Z" fill="#2F80ED"/>
<path d="M268.026 9.02457C268.915 7.8899 270.065 7.04657 271.476 6.49457C272.917 5.9119 274.558 5.62057 276.398 5.62057V13.4866C275.6 13.3946 274.941 13.3486 274.42 13.3486C272.549 13.3486 271.077 13.8546 270.004 14.8666C268.961 15.8786 268.44 17.4272 268.44 19.5126V30.9666H259.7V6.03457H268.026V9.02457Z" fill="#2F80ED"/>
</svg>
