<svg width="28" height="28" viewBox="0 0 28 28" fill="none" xmlns="http://www.w3.org/2000/svg">
<g id="bumpy-road-sign">
<path id="Vector" d="M26.5067 20.0668L15.9251 3.37183C15.5051 2.7185 14.7934 2.3335 14.0001 2.3335C13.2067 2.3335 12.4951 2.7185 12.0751 3.37183L1.49339 20.0668C1.08505 20.7202 1.05005 21.5135 1.42339 22.1902C1.82005 22.8902 2.57839 23.3335 3.41839 23.3335H24.5817C25.4217 23.3335 26.1801 22.8902 26.5767 22.1902C26.9501 21.5135 26.9151 20.7202 26.5067 20.0668ZM3.50005 21.0002L6.75505 16.0768C7.63005 15.7385 8.09672 15.1668 9.62505 15.1668C11.8067 15.1668 11.8067 16.3335 13.9884 16.3335C16.1817 16.3335 16.1817 15.1668 18.3751 15.1668C19.8801 15.1668 20.3467 15.7268 21.2101 16.0652L24.5001 21.0002H3.50005Z" fill="#2F80ED"/>
</g>
</svg>
