<svg width="28" height="28" viewBox="0 0 28 28" fill="none" xmlns="http://www.w3.org/2000/svg">
<g id="speed-camera">
<path id="Vector" d="M4.66671 3.5C3.38337 3.5 2.33337 4.55 2.33337 5.83333V22.1667C2.33337 23.45 3.38337 24.5 4.66671 24.5H14C15.2834 24.5 16.3334 23.45 16.3334 22.1667V5.83333C16.3334 4.55 15.2834 3.5 14 3.5H4.66671ZM18.6667 5.83333V22.1667H21V19.8333H24.5C25.1452 19.8333 25.6667 19.3107 25.6667 18.6667V9.33333C25.6667 8.68933 25.1452 8.16667 24.5 8.16667H21V5.83333H18.6667ZM9.33337 8.16667C10.6167 8.16667 11.6667 9.21667 11.6667 10.5C11.6667 11.7833 10.6167 12.8333 9.33337 12.8333C8.05004 12.8333 7.00004 11.7833 7.00004 10.5C7.00004 9.21667 8.05004 8.16667 9.33337 8.16667Z" fill="#2F80ED"/>
</g>
</svg>
