<svg width="26" height="26" viewBox="0 0 26 26" fill="none" xmlns="http://www.w3.org/2000/svg">
<g id="Frame" clip-path="url(#clip0_360_344)">
<path id="Vector" d="M20.5834 21.6667H5.41669V22.75C5.41669 23.0373 5.30255 23.3129 5.09939 23.516C4.89622 23.7192 4.62067 23.8333 4.33335 23.8333H3.25002C2.9627 23.8333 2.68715 23.7192 2.48399 23.516C2.28082 23.3129 2.16669 23.0373 2.16669 22.75V13L4.8891 5.7395C5.04395 5.32642 5.3212 4.97045 5.68379 4.71917C6.04638 4.46789 6.47704 4.33328 6.91819 4.33334H19.0819C19.523 4.33328 19.9537 4.46789 20.3162 4.71917C20.6788 4.97045 20.9561 5.32642 21.1109 5.7395L23.8334 13V22.75C23.8334 23.0373 23.7192 23.3129 23.5161 23.516C23.3129 23.7192 23.0373 23.8333 22.75 23.8333H21.6667C21.3794 23.8333 21.1038 23.7192 20.9007 23.516C20.6975 23.3129 20.5834 23.0373 20.5834 22.75V21.6667ZM4.48069 13H21.5194L19.0819 6.5H6.91819L4.48069 13ZM7.04169 18.4167C7.47266 18.4167 7.88599 18.2455 8.19074 17.9407C8.49548 17.636 8.66669 17.2226 8.66669 16.7917C8.66669 16.3607 8.49548 15.9474 8.19074 15.6426C7.88599 15.3379 7.47266 15.1667 7.04169 15.1667C6.61071 15.1667 6.19738 15.3379 5.89264 15.6426C5.58789 15.9474 5.41669 16.3607 5.41669 16.7917C5.41669 17.2226 5.58789 17.636 5.89264 17.9407C6.19738 18.2455 6.61071 18.4167 7.04169 18.4167ZM18.9584 18.4167C19.3893 18.4167 19.8027 18.2455 20.1074 17.9407C20.4121 17.636 20.5834 17.2226 20.5834 16.7917C20.5834 16.3607 20.4121 15.9474 20.1074 15.6426C19.8027 15.3379 19.3893 15.1667 18.9584 15.1667C18.5274 15.1667 18.1141 15.3379 17.8093 15.6426C17.5046 15.9474 17.3334 16.3607 17.3334 16.7917C17.3334 17.2226 17.5046 17.636 17.8093 17.9407C18.1141 18.2455 18.5274 18.4167 18.9584 18.4167Z" fill="#BB6BD9"/>
</g>
<defs>
<clipPath id="clip0_360_344">
<rect width="26" height="26" fill="white"/>
</clipPath>
</defs>
</svg>
