<svg width="48" height="48" viewBox="0 0 48 48" fill="none" xmlns="http://www.w3.org/2000/svg">
<g filter="url(#filter0_f_714_302)">
<rect x="12" y="12" width="24" height="24" fill="#BB6BD9" fill-opacity="0.25"/>
</g>
<g clip-path="url(#clip0_714_302)">
<path d="M35.5834 27.6667H20.4167V28.75C20.4167 29.0373 20.3026 29.3129 20.0994 29.516C19.8962 29.7192 19.6207 29.8333 19.3334 29.8333H18.25C17.9627 29.8333 17.6872 29.7192 17.484 29.516C17.2808 29.3129 17.1667 29.0373 17.1667 28.75V19L19.8891 11.7395C20.0439 11.3264 20.3212 10.9704 20.6838 10.7192C21.0464 10.4679 21.477 10.3333 21.9182 10.3333H34.0819C34.523 10.3333 34.9537 10.4679 35.3162 10.7192C35.6788 10.9704 35.9561 11.3264 36.1109 11.7395L38.8334 19V28.75C38.8334 29.0373 38.7192 29.3129 38.5161 29.516C38.3129 29.7192 38.0373 29.8333 37.75 29.8333H36.6667C36.3794 29.8333 36.1038 29.7192 35.9007 29.516C35.6975 29.3129 35.5834 29.0373 35.5834 28.75V27.6667ZM19.4807 19H36.5194L34.0819 12.5H21.9182L19.4807 19ZM22.0417 24.4167C22.4727 24.4167 22.886 24.2455 23.1907 23.9407C23.4955 23.636 23.6667 23.2226 23.6667 22.7917C23.6667 22.3607 23.4955 21.9474 23.1907 21.6426C22.886 21.3379 22.4727 21.1667 22.0417 21.1667C21.6107 21.1667 21.1974 21.3379 20.8926 21.6426C20.5879 21.9474 20.4167 22.3607 20.4167 22.7917C20.4167 23.2226 20.5879 23.636 20.8926 23.9407C21.1974 24.2455 21.6107 24.4167 22.0417 24.4167ZM33.9584 24.4167C34.3893 24.4167 34.8027 24.2455 35.1074 23.9407C35.4121 23.636 35.5834 23.2226 35.5834 22.7917C35.5834 22.3607 35.4121 21.9474 35.1074 21.6426C34.8027 21.3379 34.3893 21.1667 33.9584 21.1667C33.5274 21.1667 33.1141 21.3379 32.8093 21.6426C32.5046 21.9474 32.3334 22.3607 32.3334 22.7917C32.3334 23.2226 32.5046 23.636 32.8093 23.9407C33.1141 24.2455 33.5274 24.4167 33.9584 24.4167Z" fill="#BB6BD9"/>
</g>
<defs>
<filter id="filter0_f_714_302" x="0" y="0" width="48" height="48" filterUnits="userSpaceOnUse" color-interpolation-filters="sRGB">
<feFlood flood-opacity="0" result="BackgroundImageFix"/>
<feBlend mode="normal" in="SourceGraphic" in2="BackgroundImageFix" result="shape"/>
<feGaussianBlur stdDeviation="6" result="effect1_foregroundBlur_714_302"/>
</filter>
<clipPath id="clip0_714_302">
<rect width="26" height="26" fill="white" transform="translate(15 6)"/>
</clipPath>
</defs>
</svg>
