<svg width="28" height="28" viewBox="0 0 28 28" fill="none" xmlns="http://www.w3.org/2000/svg">
<g id="engine">
<path id="Vector" d="M11.6667 2.33334V4.66667H15.1667V7H17.5V4.66667H21V2.33334H11.6667ZM11.6667 9.33334C11.3517 9.33334 11.0589 9.46058 10.8372 9.67058L8.85482 11.6667H5.83333C5.19167 11.6667 4.66667 12.1917 4.66667 12.8333V19.8333C4.66667 20.475 5.19167 21 5.83333 21H7.81575L11.0241 23.1351C11.2108 23.2634 11.4333 23.3333 11.6667 23.3333H17.5C17.7567 23.3333 18.0012 23.2526 18.1995 23.1009L22.8662 19.6009C23.1579 19.3792 23.3333 19.0283 23.3333 18.6667V10.5C23.3333 9.85834 22.8083 9.33334 22.1667 9.33334H11.6667ZM25.6667 10.5V17.5H28V10.5H25.6667ZM15.1667 11.6667V15.1667H17.5L14 21V17.5H11.6667L15.1667 11.6667ZM0 12.8333V18.6667H2.33333V12.8333H0Z" fill="#2F80ED"/>
</g>
</svg>
