<svg width="26" height="26" viewBox="0 0 26 26" fill="none" xmlns="http://www.w3.org/2000/svg">
<g id="Frame" clip-path="url(#clip0_360_333)">
<path id="Vector" d="M7.58331 4.33333V3.25C7.58331 2.96268 7.69745 2.68713 7.90061 2.48397C8.10378 2.2808 8.37933 2.16667 8.66665 2.16667H17.3333C17.6206 2.16667 17.8962 2.2808 18.0993 2.48397C18.3025 2.68713 18.4166 2.96268 18.4166 3.25V4.33333H21.6666C21.6666 7.04167 18.9583 8.125 18.4166 8.125V10.8333H21.6666C21.6666 13.5417 18.9583 14.625 18.4166 14.625V17.3333H21.6666C21.6666 20.0417 18.9583 21.125 18.4166 21.125V22.75C18.4166 23.0373 18.3025 23.3129 18.0993 23.516C17.8962 23.7192 17.6206 23.8333 17.3333 23.8333H8.66665C8.37933 23.8333 8.10378 23.7192 7.90061 23.516C7.69745 23.3129 7.58331 23.0373 7.58331 22.75V21.125C7.04165 21.125 4.33331 20.0417 4.33331 17.3333H7.58331V14.625C7.04165 14.625 4.33331 13.5417 4.33331 10.8333H7.58331V8.125C7.04165 8.125 4.33331 7.04167 4.33331 4.33333H7.58331ZM13 21.6667C13.5746 21.6667 14.1257 21.4384 14.532 21.0321C14.9384 20.6257 15.1666 20.0746 15.1666 19.5C15.1666 18.9254 14.9384 18.3743 14.532 17.9679C14.1257 17.5616 13.5746 17.3333 13 17.3333C12.4253 17.3333 11.8742 17.5616 11.4679 17.9679C11.0616 18.3743 10.8333 18.9254 10.8333 19.5C10.8333 20.0746 11.0616 20.6257 11.4679 21.0321C11.8742 21.4384 12.4253 21.6667 13 21.6667ZM13 15.1667C13.5746 15.1667 14.1257 14.9384 14.532 14.5321C14.9384 14.1257 15.1666 13.5746 15.1666 13C15.1666 12.4254 14.9384 11.8743 14.532 11.4679C14.1257 11.0616 13.5746 10.8333 13 10.8333C12.4253 10.8333 11.8742 11.0616 11.4679 11.4679C11.0616 11.8743 10.8333 12.4254 10.8333 13C10.8333 13.5746 11.0616 14.1257 11.4679 14.5321C11.8742 14.9384 12.4253 15.1667 13 15.1667ZM13 8.66667C13.5746 8.66667 14.1257 8.4384 14.532 8.03207C14.9384 7.62574 15.1666 7.07464 15.1666 6.5C15.1666 5.92537 14.9384 5.37427 14.532 4.96794C14.1257 4.56161 13.5746 4.33333 13 4.33333C12.4253 4.33333 11.8742 4.56161 11.4679 4.96794C11.0616 5.37427 10.8333 5.92537 10.8333 6.5C10.8333 7.07464 11.0616 7.62574 11.4679 8.03207C11.8742 8.4384 12.4253 8.66667 13 8.66667Z" fill="#2F80ED"/>
</g>
<defs>
<clipPath id="clip0_360_333">
<rect width="26" height="26" fill="white"/>
</clipPath>
</defs>
</svg>
