<svg width="45" height="52" viewBox="0 0 45 52" fill="none" xmlns="http://www.w3.org/2000/svg">
<g filter="url(#filter0_f_714_300)">
<rect x="15.6467" y="12.9891" width="17" height="24" transform="rotate(7.53395 15.6467 12.9891)" fill="#27AE60" fill-opacity="0.25"/>
</g>
<g clip-path="url(#clip0_714_300)">
<path d="M24.6492 17.5225L22.6667 18.244V22.0833H20.5V16.7208H20.5163L26.2233 14.643C26.4876 14.5422 26.7758 14.4913 27.0704 14.5011C27.6592 14.5158 28.2288 14.7135 28.7 15.0669C29.1712 15.4202 29.5207 15.9116 29.6997 16.4727C29.9012 17.1043 30.0854 17.5312 30.2522 17.7533C30.7564 18.4256 31.4103 18.9712 32.1622 19.3467C32.914 19.7222 33.743 19.9174 34.5834 19.9167V22.0833C33.4646 22.0845 32.3595 21.8377 31.3475 21.3606C30.3356 20.8835 29.4421 20.188 28.7312 19.3241L27.9761 23.6097L30.25 25.5175V32.9167H28.0834V26.5272L25.6242 24.4645L24.8366 28.9354L17.3681 27.6192L17.7451 25.485L23.0794 26.4253L24.6492 17.5225ZM28.625 13.9583C28.0504 13.9583 27.4993 13.7301 27.093 13.3237C26.6866 12.9174 26.4584 12.3663 26.4584 11.7917C26.4584 11.217 26.6866 10.6659 27.093 10.2596C27.4993 9.85327 28.0504 9.625 28.625 9.625C29.1997 9.625 29.7508 9.85327 30.1571 10.2596C30.5634 10.6659 30.7917 11.217 30.7917 11.7917C30.7917 12.3663 30.5634 12.9174 30.1571 13.3237C29.7508 13.7301 29.1997 13.9583 28.625 13.9583Z" fill="#27AE60"/>
</g>
<defs>
<filter id="filter0_f_714_300" x="0.5" y="0.989128" width="44" height="50.0217" filterUnits="userSpaceOnUse" color-interpolation-filters="sRGB">
<feFlood flood-opacity="0" result="BackgroundImageFix"/>
<feBlend mode="normal" in="SourceGraphic" in2="BackgroundImageFix" result="shape"/>
<feGaussianBlur stdDeviation="6" result="effect1_foregroundBlur_714_300"/>
</filter>
<clipPath id="clip0_714_300">
<rect width="26" height="26" fill="white" transform="translate(14 8)"/>
</clipPath>
</defs>
</svg>
