<svg width="26" height="26" viewBox="0 0 26 26" fill="none" xmlns="http://www.w3.org/2000/svg">
<g id="Frame" clip-path="url(#clip0_360_323)">
<path id="Vector" d="M10.6492 9.5225L8.66669 10.244V14.0833H6.50002V8.72083H6.51627L12.2233 6.643C12.4876 6.54225 12.7758 6.49133 13.0704 6.50108C13.6592 6.51577 14.2288 6.71353 14.7 7.06689C15.1712 7.42025 15.5207 7.91164 15.6997 8.47275C15.9012 9.10433 16.0854 9.53117 16.2522 9.75325C16.7564 10.4256 17.4103 10.9712 18.1622 11.3467C18.914 11.7222 19.743 11.9174 20.5834 11.9167V14.0833C19.4646 14.0846 18.3595 13.8377 17.3475 13.3606C16.3356 12.8835 15.4421 12.188 14.7312 11.3241L13.9761 15.6097L16.25 17.5175V24.9167H14.0834V18.5272L11.6242 16.4645L10.8366 20.9354L3.3681 19.6192L3.7451 17.485L9.07944 18.4253L10.6492 9.5225ZM14.625 5.95833C14.0504 5.95833 13.4993 5.73006 13.093 5.32373C12.6866 4.9174 12.4584 4.3663 12.4584 3.79167C12.4584 3.21703 12.6866 2.66593 13.093 2.2596C13.4993 1.85327 14.0504 1.625 14.625 1.625C15.1997 1.625 15.7508 1.85327 16.1571 2.2596C16.5634 2.66593 16.7917 3.21703 16.7917 3.79167C16.7917 4.3663 16.5634 4.9174 16.1571 5.32373C15.7508 5.73006 15.1997 5.95833 14.625 5.95833Z" fill="#27AE60"/>
</g>
<defs>
<clipPath id="clip0_360_323">
<rect width="26" height="26" fill="white"/>
</clipPath>
</defs>
</svg>
