<svg width="46" height="49" viewBox="0 0 46 49" fill="none" xmlns="http://www.w3.org/2000/svg">
<g filter="url(#filter0_f_714_301)">
<rect x="12" y="12.5" width="22" height="24" fill="#2F80ED" fill-opacity="0.25"/>
</g>
<g clip-path="url(#clip0_714_301)">
<path d="M20.5833 11.3333V10.25C20.5833 9.96268 20.6974 9.68713 20.9006 9.48397C21.1038 9.2808 21.3793 9.16667 21.6666 9.16667H30.3333C30.6206 9.16667 30.8962 9.2808 31.0993 9.48397C31.3025 9.68713 31.4166 9.96268 31.4166 10.25V11.3333H34.6666C34.6666 14.0417 31.9583 15.125 31.4166 15.125V17.8333H34.6666C34.6666 20.5417 31.9583 21.625 31.4166 21.625V24.3333H34.6666C34.6666 27.0417 31.9583 28.125 31.4166 28.125V29.75C31.4166 30.0373 31.3025 30.3129 31.0993 30.516C30.8962 30.7192 30.6206 30.8333 30.3333 30.8333H21.6666C21.3793 30.8333 21.1038 30.7192 20.9006 30.516C20.6974 30.3129 20.5833 30.0373 20.5833 29.75V28.125C20.0416 28.125 17.3333 27.0417 17.3333 24.3333H20.5833V21.625C20.0416 21.625 17.3333 20.5417 17.3333 17.8333H20.5833V15.125C20.0416 15.125 17.3333 14.0417 17.3333 11.3333H20.5833ZM26 28.6667C26.5746 28.6667 27.1257 28.4384 27.532 28.0321C27.9384 27.6257 28.1666 27.0746 28.1666 26.5C28.1666 25.9254 27.9384 25.3743 27.532 24.9679C27.1257 24.5616 26.5746 24.3333 26 24.3333C25.4253 24.3333 24.8742 24.5616 24.4679 24.9679C24.0616 25.3743 23.8333 25.9254 23.8333 26.5C23.8333 27.0746 24.0616 27.6257 24.4679 28.0321C24.8742 28.4384 25.4253 28.6667 26 28.6667ZM26 22.1667C26.5746 22.1667 27.1257 21.9384 27.532 21.5321C27.9384 21.1257 28.1666 20.5746 28.1666 20C28.1666 19.4254 27.9384 18.8743 27.532 18.4679C27.1257 18.0616 26.5746 17.8333 26 17.8333C25.4253 17.8333 24.8742 18.0616 24.4679 18.4679C24.0616 18.8743 23.8333 19.4254 23.8333 20C23.8333 20.5746 24.0616 21.1257 24.4679 21.5321C24.8742 21.9384 25.4253 22.1667 26 22.1667ZM26 15.6667C26.5746 15.6667 27.1257 15.4384 27.532 15.0321C27.9384 14.6257 28.1666 14.0746 28.1666 13.5C28.1666 12.9254 27.9384 12.3743 27.532 11.9679C27.1257 11.5616 26.5746 11.3333 26 11.3333C25.4253 11.3333 24.8742 11.5616 24.4679 11.9679C24.0616 12.3743 23.8333 12.9254 23.8333 13.5C23.8333 14.0746 24.0616 14.6257 24.4679 15.0321C24.8742 15.4384 25.4253 15.6667 26 15.6667Z" fill="#2F80ED"/>
</g>
<defs>
<filter id="filter0_f_714_301" x="0" y="0.5" width="46" height="48" filterUnits="userSpaceOnUse" color-interpolation-filters="sRGB">
<feFlood flood-opacity="0" result="BackgroundImageFix"/>
<feBlend mode="normal" in="SourceGraphic" in2="BackgroundImageFix" result="shape"/>
<feGaussianBlur stdDeviation="6" result="effect1_foregroundBlur_714_301"/>
</filter>
<clipPath id="clip0_714_301">
<rect width="26" height="26" fill="white" transform="translate(13 7)"/>
</clipPath>
</defs>
</svg>
