<svg width="15" height="15" viewBox="0 0 15 15" fill="none" xmlns="http://www.w3.org/2000/svg">
<g id="Frame">
<path id="Vector" d="M0.738525 7.5C1.32634 4.29985 4.13008 1.875 7.50019 1.875C10.8703 1.875 13.674 4.29985 14.2618 7.5C13.674 10.7001 10.8703 13.125 7.50019 13.125C4.13008 13.125 1.32634 10.7001 0.738525 7.5ZM7.50019 10.625C9.22606 10.625 10.6252 9.22587 10.6252 7.5C10.6252 5.77411 9.22606 4.375 7.50019 4.375C5.77428 4.375 4.37516 5.77411 4.37516 7.5C4.37516 9.22587 5.77428 10.625 7.50019 10.625ZM7.50019 9.375C6.46463 9.375 5.62516 8.53556 5.62516 7.5C5.62516 6.46444 6.46463 5.625 7.50019 5.625C8.53569 5.625 9.37519 6.46444 9.37519 7.5C9.37519 8.53556 8.53569 9.375 7.50019 9.375Z" fill="#BDBDBD"/>
</g>
</svg>
