<svg width="28" height="28" viewBox="0 0 28 28" fill="none" xmlns="http://www.w3.org/2000/svg">
<g id="heart, heartbeat, cardio, activity, monitor, tracking, rhythm, pulse, hospital, b 1">
<path id="Vector" d="M8.74999 11.2L9.06751 12.63L9.80027 9.33325H12.6L14.4676 17.7332L15.9194 11.2H18.7194L19.3421 14H24.4233C24.9247 12.5216 25.2 10.9556 25.2 9.33325C25.2 6.23981 22.6934 3.73325 19.6 3.73325C17.4345 3.73325 15.4711 4.57549 14 5.94189C12.5289 4.57549 10.5647 3.73325 8.39999 3.73325C5.30711 3.73325 2.79999 6.23981 2.79999 9.33325C2.79999 9.96577 2.85291 10.5865 2.93299 11.2H8.74999Z" fill="#EB5757"/>
<path id="Vector_2" d="M17.8444 15.8668L17.3194 13.5041L15.9653 19.6H12.9702L11.2006 11.6374L10.2609 15.8665H7.90888C7.63308 14.6278 7.28616 13.0662 7.28616 13.0662H7.25284H3.31128C3.5364 13.9076 3.81724 14.7305 4.18208 15.5154C5.10356 17.4941 6.44448 19.2735 8.1158 20.7626C9.7874 22.2516 11.7855 23.4464 14 24.2668C16.2148 23.4464 18.2129 22.2516 19.8845 20.7628C21.4547 19.364 22.7181 17.7022 23.6314 15.8668H17.8444Z" fill="#EB5757"/>
</g>
</svg>
