<svg width="28" height="28" viewBox="0 0 28 28" fill="none" xmlns="http://www.w3.org/2000/svg">
<g id="park-and-charge">
<path id="Vector" d="M1.16663 3.5V8.16667V9.33333C1.16663 10.6225 2.21079 11.6667 3.49996 11.6667H5.83329C7.12246 11.6667 8.16663 10.6225 8.16663 9.33333V5.83333V3.5H5.83329V5.83333H3.49996V3.5H1.16663ZM10.5 3.5V9.33333C10.5 11.06 9.56663 12.5661 8.16663 13.3711V22.1667H5.83329V14H3.49996V22.1667C3.49996 23.45 4.54996 24.5 5.83329 24.5H22.1666C23.45 24.5 24.5 23.45 24.5 22.1667V5.83333C24.5 4.55 23.45 3.5 22.1666 3.5H10.5ZM17.4772 10.5C19.0627 10.5 20.1926 10.8091 20.9521 11.4274C21.6778 12.0119 22.1666 12.9754 22.1666 14.1094C22.1666 15.2434 21.7951 16.2041 21.1207 16.8574C20.2434 17.6986 18.9438 18.0765 17.4248 18.0765C17.0888 18.0765 16.5701 18.0135 16.3356 17.9785V22.1667H14.0022V10.7393C14.7944 10.6016 15.908 10.5 17.4772 10.5ZM17.6116 12.4756C17.0889 12.4756 16.5188 12.5621 16.3333 12.6146V15.93C16.5526 15.9813 17.039 16.0667 17.4088 16.0667C18.7761 16.0667 19.6191 15.3631 19.6191 14.1777C19.6191 13.1126 18.8938 12.4756 17.6116 12.4756Z" fill="#2F80ED"/>
</g>
</svg>
