<svg width="28" height="28" viewBox="0 0 28 28" fill="none" xmlns="http://www.w3.org/2000/svg">
<g id="maximum-speed">
<path id="Vector" d="M14 2.3335C7.55654 2.3335 2.33337 7.55666 2.33337 14.0002C2.33337 20.4437 7.55654 25.6668 14 25.6668C20.4435 25.6668 25.6667 20.4437 25.6667 14.0002C25.6667 7.55666 20.4435 2.3335 14 2.3335ZM17.2152 10.0832C19.244 10.0832 20.0362 11.8905 20.0362 13.966C20.0362 16.3098 19.0915 17.9172 17.156 17.9172C15.1971 17.9172 14.333 16.1571 14.3213 14.0116C14.3213 11.8194 15.2552 10.0832 17.2152 10.0832ZM8.8503 10.2108H13.0248V11.6691H10.0853L9.92354 12.8358C10.0869 12.8124 10.2268 12.8107 10.4135 12.8107C11.1368 12.8107 11.8718 12.9749 12.4073 13.3599C12.9789 13.7449 13.3278 14.3748 13.3278 15.2603C13.3278 16.6708 12.1156 17.9172 10.0739 17.9172C9.15227 17.9172 8.38391 17.7082 7.96391 17.4865L8.27836 16.1558C8.61669 16.3191 9.30474 16.5295 9.9919 16.5295C10.7269 16.5295 11.5072 16.1803 11.5072 15.3765C11.5072 14.596 10.8899 14.1164 9.37439 14.1164C8.95556 14.1164 8.664 14.1381 8.349 14.1847L8.8503 10.2108ZM17.1901 11.423C16.5368 11.423 16.0961 12.2499 16.1078 14.0116C16.0961 15.7487 16.5144 16.5773 17.2015 16.5773C17.8887 16.5773 18.2634 15.7154 18.2634 13.9888C18.2634 12.3099 17.9006 11.423 17.1901 11.423Z" fill="#2F80ED"/>
</g>
</svg>
