<svg width="22" height="22" viewBox="0 0 22 22" fill="none" xmlns="http://www.w3.org/2000/svg">
<g clip-path="url(#clip0_146_194)">
<path d="M2.56664 4.76666L6.41664 7.33333L10.2538 1.96166C10.3386 1.84283 10.4506 1.74597 10.5803 1.67915C10.7101 1.61232 10.854 1.57745 11 1.57745C11.146 1.57745 11.2898 1.61232 11.4196 1.67915C11.5494 1.74597 11.6613 1.84283 11.7461 1.96166L15.5833 7.33333L19.4333 4.76666C19.579 4.66972 19.7494 4.61652 19.9244 4.61334C20.0994 4.61016 20.2716 4.65713 20.4208 4.74871C20.5699 4.8403 20.6897 4.97266 20.766 5.13015C20.8423 5.28765 20.8719 5.4637 20.8514 5.63749L19.3453 18.4406C19.319 18.6636 19.2118 18.8691 19.0441 19.0183C18.8763 19.1675 18.6596 19.25 18.4351 19.25H3.56489C3.34037 19.25 3.12367 19.1675 2.95589 19.0183C2.7881 18.8691 2.68091 18.6636 2.65464 18.4406L1.14856 5.63658C1.12821 5.46285 1.15799 5.28693 1.23438 5.12958C1.31077 4.97224 1.43058 4.84003 1.57968 4.74857C1.72877 4.6571 1.90092 4.61021 2.0758 4.61342C2.25069 4.61662 2.421 4.6698 2.56664 4.76666ZM11 13.75C11.4862 13.75 11.9525 13.5568 12.2963 13.213C12.6402 12.8692 12.8333 12.4029 12.8333 11.9167C12.8333 11.4304 12.6402 10.9641 12.2963 10.6203C11.9525 10.2765 11.4862 10.0833 11 10.0833C10.5137 10.0833 10.0474 10.2765 9.70361 10.6203C9.3598 10.9641 9.16664 11.4304 9.16664 11.9167C9.16664 12.4029 9.3598 12.8692 9.70361 13.213C10.0474 13.5568 10.5137 13.75 11 13.75Z" fill="#E0C432"/>
</g>
<defs>
<clipPath id="clip0_146_194">
<rect width="22" height="22" fill="white"/>
</clipPath>
</defs>
</svg>
