<svg width="48" height="48" viewBox="0 0 48 48" fill="none" xmlns="http://www.w3.org/2000/svg">
<g filter="url(#filter0_f_714_304)">
<rect x="12" y="12" width="24" height="24" fill="#56CCF2" fill-opacity="0.27"/>
</g>
<g clip-path="url(#clip0_714_304)">
<path d="M26.9167 21.1667H28.5417C29.5473 21.1667 30.5117 20.7672 31.2228 20.0561C31.9339 19.345 32.3333 18.3806 32.3333 17.375C32.3333 16.3694 31.9339 15.405 31.2228 14.6939C30.5117 13.9828 29.5473 13.5833 28.5417 13.5833H24.75V24.4167H26.9167V21.1667ZM19.3333 9.25H36.6667C36.954 9.25 37.2295 9.36414 37.4327 9.5673C37.6359 9.77047 37.75 10.046 37.75 10.3333V27.6667C37.75 27.954 37.6359 28.2295 37.4327 28.4327C37.2295 28.6359 36.954 28.75 36.6667 28.75H19.3333C19.046 28.75 18.7705 28.6359 18.5673 28.4327C18.3641 28.2295 18.25 27.954 18.25 27.6667V10.3333C18.25 10.046 18.3641 9.77047 18.5673 9.5673C18.7705 9.36414 19.046 9.25 19.3333 9.25ZM26.9167 15.75H28.5417C28.9726 15.75 29.386 15.9212 29.6907 16.226C29.9955 16.5307 30.1667 16.944 30.1667 17.375C30.1667 17.806 29.9955 18.2193 29.6907 18.524C29.386 18.8288 28.9726 19 28.5417 19H26.9167V15.75Z" fill="#56CCF2"/>
</g>
<defs>
<filter id="filter0_f_714_304" x="0" y="0" width="48" height="48" filterUnits="userSpaceOnUse" color-interpolation-filters="sRGB">
<feFlood flood-opacity="0" result="BackgroundImageFix"/>
<feBlend mode="normal" in="SourceGraphic" in2="BackgroundImageFix" result="shape"/>
<feGaussianBlur stdDeviation="6" result="effect1_foregroundBlur_714_304"/>
</filter>
<clipPath id="clip0_714_304">
<rect width="26" height="26" fill="white" transform="translate(15 6)"/>
</clipPath>
</defs>
</svg>
