<svg width="26" height="26" viewBox="0 0 26 26" fill="none" xmlns="http://www.w3.org/2000/svg">
<g id="Frame" clip-path="url(#clip0_360_364)">
<path id="Vector" d="M11.9167 15.1667H13.5417C14.5473 15.1667 15.5117 14.7672 16.2228 14.0561C16.9339 13.345 17.3333 12.3806 17.3333 11.375C17.3333 10.3694 16.9339 9.40496 16.2228 8.69389C15.5117 7.98281 14.5473 7.58333 13.5417 7.58333H9.75V18.4167H11.9167V15.1667ZM4.33333 3.25H21.6667C21.954 3.25 22.2295 3.36414 22.4327 3.5673C22.6359 3.77047 22.75 4.04602 22.75 4.33333V21.6667C22.75 21.954 22.6359 22.2295 22.4327 22.4327C22.2295 22.6359 21.954 22.75 21.6667 22.75H4.33333C4.04602 22.75 3.77047 22.6359 3.5673 22.4327C3.36414 22.2295 3.25 21.954 3.25 21.6667V4.33333C3.25 4.04602 3.36414 3.77047 3.5673 3.5673C3.77047 3.36414 4.04602 3.25 4.33333 3.25ZM11.9167 9.75H13.5417C13.9726 9.75 14.386 9.92121 14.6907 10.226C14.9955 10.5307 15.1667 10.944 15.1667 11.375C15.1667 11.806 14.9955 12.2193 14.6907 12.524C14.386 12.8288 13.9726 13 13.5417 13H11.9167V9.75Z" fill="#56CCF2"/>
</g>
<defs>
<clipPath id="clip0_360_364">
<rect width="26" height="26" fill="white"/>
</clipPath>
</defs>
</svg>
