<svg width="48" height="48" viewBox="0 0 48 48" fill="none" xmlns="http://www.w3.org/2000/svg">
<g filter="url(#filter0_f_714_303)">
<rect x="12" y="12" width="24" height="24" fill="#EB5757" fill-opacity="0.25"/>
</g>
<path d="M23.6266 8.44L17.44 14.6256V23.3744L23.6266 29.56H32.3744L38.56 23.3744V14.6256L32.3734 8.44H23.6266ZM29.6303 15.7394C31.2105 15.7394 31.6591 17.4864 31.6591 18.9888C31.6595 21.4665 30.7818 22.4716 29.5328 22.4716C28.04 22.4716 27.4544 20.8911 27.4544 19.0863C27.4544 17.2911 28.1663 15.7394 29.6303 15.7394ZM22.0356 15.7591C22.4748 15.7591 22.8839 15.8758 23.0697 15.9934L22.8653 17.0959C22.68 16.9793 22.3966 16.8719 22.0356 16.8719C21.4894 16.8719 21.2266 17.203 21.2266 17.5544C21.2266 17.9451 21.4215 18.1499 22.1238 18.5791C23.0022 19.1056 23.3134 19.7689 23.3134 20.4616C23.3134 21.6616 22.4261 22.4519 21.1478 22.4519C20.6213 22.4519 20.1129 22.3152 19.8888 22.1884L20.0744 21.0859C20.3379 21.2328 20.7957 21.3409 21.1572 21.3409C21.7524 21.3409 22.0544 21.0285 22.0544 20.5984C22.0544 20.1204 21.7623 19.8864 21.2059 19.525C20.3088 18.9792 19.9675 18.2865 19.9675 17.6903C19.9675 16.6367 20.6695 15.7591 22.0356 15.7591ZM33.8088 15.7891C34.57 15.7891 35.1752 15.8955 35.5947 16.2953C35.9844 16.6366 36.16 17.1832 36.16 17.7391C36.16 18.4509 35.9458 18.9592 35.6041 19.3197C35.1941 19.7589 34.5409 19.9544 34.0038 19.9544C33.9164 19.9544 33.838 19.9546 33.7497 19.9441V22.3928H32.4719V15.9147C32.8324 15.8369 33.3211 15.7891 33.8088 15.7891ZM23.6181 15.8172H27.2284V16.9975H26.0566V22.3938H24.7788V16.9975H23.6181V15.8172ZM34.0628 16.8222C33.9452 16.8222 33.8284 16.8421 33.7497 16.8719V18.9109C33.8179 18.9205 33.8866 18.9213 33.9653 18.9213C34.6095 18.9213 34.8925 18.4627 34.8925 17.8478C34.8925 17.2713 34.6575 16.8222 34.0628 16.8222ZM29.5722 16.8513C29.0644 16.8513 28.7819 17.6904 28.7819 19.105C28.7819 20.5978 29.0646 21.3588 29.5825 21.3588C30.1283 21.3588 30.3325 20.3832 30.3325 19.0469C30.3325 17.8954 30.1573 16.8513 29.5722 16.8513Z" fill="#EB5757"/>
<defs>
<filter id="filter0_f_714_303" x="0" y="0" width="48" height="48" filterUnits="userSpaceOnUse" color-interpolation-filters="sRGB">
<feFlood flood-opacity="0" result="BackgroundImageFix"/>
<feBlend mode="normal" in="SourceGraphic" in2="BackgroundImageFix" result="shape"/>
<feGaussianBlur stdDeviation="6" result="effect1_foregroundBlur_714_303"/>
</filter>
</defs>
</svg>
