<svg width="24" height="24" viewBox="0 0 24 24" fill="none" xmlns="http://www.w3.org/2000/svg">
<g id="stop-sign">
<path id="Vector" d="M7.62656 1.44L1.44 7.62563V16.3744L7.62656 22.56H16.3744L22.56 16.3744V7.62563L16.3734 1.44H7.62656ZM13.6303 8.73938C15.2105 8.73938 15.6591 10.4864 15.6591 11.9888C15.6595 14.4665 14.7818 15.4716 13.5328 15.4716C12.04 15.4716 11.4544 13.8911 11.4544 12.0863C11.4544 10.2911 12.1663 8.73938 13.6303 8.73938ZM6.03563 8.75906C6.47483 8.75906 6.88393 8.87584 7.06969 8.99344L6.86531 10.0959C6.68003 9.9793 6.39659 9.87188 6.03563 9.87188C5.48939 9.87188 5.22656 10.203 5.22656 10.5544C5.22656 10.9451 5.42151 11.1499 6.12375 11.5791C7.00215 12.1056 7.31344 12.7689 7.31344 13.4616C7.31344 14.6616 6.42605 15.4519 5.14781 15.4519C4.62126 15.4519 4.11291 15.3152 3.88875 15.1884L4.07438 14.0859C4.3379 14.2328 4.79575 14.3409 5.15719 14.3409C5.75239 14.3409 6.05438 14.0285 6.05438 13.5984C6.05438 13.1204 5.76226 12.8864 5.20594 12.525C4.30882 11.9792 3.9675 11.2865 3.9675 10.6903C3.9675 9.63671 4.66955 8.75906 6.03563 8.75906ZM17.8088 8.78906C18.57 8.78906 19.1752 8.89547 19.5947 9.29531C19.9844 9.63659 20.16 10.1832 20.16 10.7391C20.16 11.4509 19.9458 11.9592 19.6041 12.3197C19.1941 12.7589 18.5409 12.9544 18.0038 12.9544C17.9164 12.9544 17.838 12.9546 17.7497 12.9441V15.3928H16.4719V8.91469C16.8324 8.83693 17.3211 8.78906 17.8088 8.78906ZM7.61813 8.81719H11.2284V9.9975H10.0566V15.3938H8.77875V9.9975H7.61813V8.81719ZM18.0628 9.82219C17.9452 9.82219 17.8284 9.84212 17.7497 9.87188V11.9109C17.8179 11.9205 17.8866 11.9213 17.9653 11.9213C18.6095 11.9213 18.8925 11.4627 18.8925 10.8478C18.8925 10.2713 18.6575 9.82219 18.0628 9.82219ZM13.5722 9.85125C13.0644 9.85125 12.7819 10.6904 12.7819 12.105C12.7819 13.5978 13.0646 14.3588 13.5825 14.3588C14.1283 14.3588 14.3325 13.3832 14.3325 12.0469C14.3325 10.8954 14.1573 9.85125 13.5722 9.85125Z" fill="#EB5757"/>
</g>
</svg>
