<svg width="28" height="28" viewBox="0 0 28 28" fill="none" xmlns="http://www.w3.org/2000/svg">
<g id="stop-sign">
<path id="Vector" d="M9.72605 1.68018C9.19567 1.68018 8.68701 1.89085 8.31194 2.26586L2.26595 8.31093C1.89081 8.68602 1.68005 9.19477 1.68005 9.72525V18.2751C1.68005 18.8056 1.89081 19.3143 2.26595 19.6894L8.31194 25.7345C8.68701 26.1095 9.19567 26.3202 9.72605 26.3202H18.2751C18.8055 26.3202 19.3142 26.1095 19.6893 25.7344L25.7343 19.6894C26.1093 19.3143 26.3201 18.8056 26.3201 18.2752V9.72525C26.3201 9.19477 26.1093 8.68602 25.7342 8.31093L19.6882 2.26585C19.3131 1.89085 18.8044 1.68018 18.2741 1.68018H9.72605ZM15.9021 10.1961C17.7456 10.1961 18.269 12.2343 18.269 13.9871C18.2695 16.8778 17.2455 18.0503 15.7883 18.0503C14.0467 18.0503 13.3635 16.2064 13.3635 14.1008C13.3635 12.0064 14.1941 10.1961 15.9021 10.1961ZM7.04162 10.2191C7.55402 10.2191 8.0313 10.3553 8.24802 10.4925L8.00958 11.7788C7.79342 11.6427 7.46274 11.5174 7.04162 11.5174C6.40434 11.5174 6.09771 11.9037 6.09771 12.3136C6.09771 12.7695 6.32515 13.0084 7.14443 13.5091C8.16923 14.1234 8.5324 14.8973 8.5324 15.7053C8.5324 17.1053 7.49712 18.0274 6.00584 18.0274C5.39152 18.0274 4.79845 17.8679 4.53693 17.72L4.75349 16.4338C5.06093 16.6051 5.59509 16.7313 6.01677 16.7313C6.71117 16.7313 7.06349 16.3668 7.06349 15.865C7.06349 15.3073 6.72269 15.0344 6.07365 14.6127C5.02701 13.976 4.6288 13.1677 4.6288 12.4722C4.6288 11.243 5.44786 10.2191 7.04162 10.2191ZM20.7769 10.2541C21.6651 10.2541 22.3711 10.3782 22.8605 10.8447C23.3152 11.2429 23.5201 11.8806 23.5201 12.5291C23.5201 13.3596 23.2702 13.9526 22.8715 14.3731C22.3932 14.8855 21.6311 15.1136 21.0044 15.1136C20.9025 15.1136 20.8111 15.1139 20.708 15.1016V17.9585H19.2172V10.4006C19.6378 10.3099 20.208 10.2541 20.7769 10.2541ZM8.88787 10.2869H13.0999V11.6639H11.7327V17.9596H10.2419V11.6639H8.88787V10.2869ZM21.0733 11.4594C20.9361 11.4594 20.7999 11.4826 20.708 11.5174V13.8963C20.7875 13.9075 20.8677 13.9083 20.9596 13.9083C21.7111 13.9083 22.0413 13.3733 22.0413 12.656C22.0413 11.9834 21.7672 11.4594 21.0733 11.4594ZM15.8343 11.4933C15.2418 11.4933 14.9122 12.4724 14.9122 14.1227C14.9122 15.8643 15.2421 16.7521 15.8463 16.7521C16.483 16.7521 16.7213 15.6139 16.7213 14.0549C16.7213 12.7114 16.5169 11.4933 15.8343 11.4933Z" fill="#2F80ED"/>
</g>
</svg>
