<svg width="28" height="28" viewBox="0 0 28 28" fill="none" xmlns="http://www.w3.org/2000/svg">
<g id="Frame">
<path id="Vector" d="M14.0012 25.6667C7.55782 25.6667 2.33447 20.4433 2.33447 14C2.33447 7.55667 7.55782 2.33333 14.0012 2.33333C20.4444 2.33333 25.6678 7.55667 25.6678 14C25.6678 20.4433 20.4444 25.6667 14.0012 25.6667ZM10.373 15.3659L10.3877 15.3566C11.0641 17.5895 11.4023 18.706 11.4023 18.706C11.5332 19.0682 11.7133 19.1329 11.9318 19.1033C12.1502 19.0737 12.2662 18.9555 12.4088 18.818C12.4088 18.818 12.8711 18.3717 13.7958 17.4793L16.7719 19.6814C17.3141 19.981 17.7057 19.8265 17.8403 19.1773L19.7744 10.0525C19.9879 9.20316 19.6134 8.86251 18.9548 9.13213L7.59963 13.5183C6.82495 13.8297 6.82869 14.2631 7.45859 14.4563L10.373 15.3659Z" fill="#2F80ED"/>
</g>
</svg>
