<svg width="28" height="28" viewBox="0 0 28 28" fill="none" xmlns="http://www.w3.org/2000/svg">
<g id="037-race track" clip-path="url(#clip0_304_899)">
<path id="Vector" d="M0.820312 0H9.60679C10.0598 0 10.4271 0.367281 10.4271 0.820312V5.21352C10.4271 7.18364 12.0299 8.78648 14 8.78648C21.9433 8.78648 28 15.2694 28 22.7865V27.1797C28 27.6327 27.6327 28 27.1797 28H18.3932C17.9402 28 17.5729 27.6327 17.5729 27.1797V22.7865C17.5729 20.8164 15.9701 19.2135 14 19.2135C6.05675 19.2135 0 12.7306 0 5.21352V0.820312C0 0.367281 0.367281 0 0.820312 0ZM21.9662 23.6651C22.0095 24.7535 23.5639 24.7527 23.6068 23.6651V21.9078C23.5634 20.8194 22.0091 20.8202 21.9662 21.9078V23.6651ZM19.0117 16.5324L20.2541 17.7748C21.0544 18.5138 22.1528 17.414 21.4141 16.6147L20.1718 15.3723C19.8514 15.052 19.3321 15.0519 19.0117 15.3723C18.6913 15.6926 18.6913 16.2121 19.0117 16.5324ZM13.1213 14.8203H14.8787C15.9671 14.7769 15.9662 13.2226 14.8787 13.1797H13.1213C12.0329 13.2231 12.0338 14.7774 13.1213 14.8203ZM6.58585 11.3853L7.82824 12.6277C8.62854 13.3667 9.72699 12.2669 8.98833 11.4676L7.74594 10.2252C7.42558 9.90484 6.90627 9.90484 6.58585 10.2252C6.26549 10.5456 6.26549 11.065 6.58585 11.3853ZM4.39321 6.09219C4.43658 7.18058 5.99091 7.17976 6.03384 6.09219V4.33491C5.99047 3.24652 4.43614 3.24734 4.39321 4.33491V6.09219Z" fill="#27AE60"/>
</g>
<defs>
<clipPath id="clip0_304_899">
<rect width="28" height="28" fill="white" transform="matrix(-1 0 0 1 28 0)"/>
</clipPath>
</defs>
</svg>
